<?xml version="1.0" encoding="UTF-8"?>
<svg id="_圖層_2" data-name="圖層 2" xmlns="http://www.w3.org/2000/svg" xmlns:xlink="http://www.w3.org/1999/xlink" viewBox="0 0 39 39">
  <defs>
    <style>
      .cls-1 {
        fill: url(#_未命名漸層_181);
      }

      .cls-1, .cls-2 {
        stroke-width: 0px;
      }

      .cls-2 {
        fill: #fff;
      }
    </style>
    <linearGradient id="_未命名漸層_181" data-name="未命名漸層 181" x1="9.86" y1="19.48" x2="29.16" y2="19.48" gradientUnits="userSpaceOnUse">
      <stop offset="0" stop-color="#74bcb5"/>
      <stop offset=".28" stop-color="#72b8bb"/>
      <stop offset=".65" stop-color="#6dadcc"/>
      <stop offset="1" stop-color="#67a0e3"/>
    </linearGradient>
  </defs>
  <g id="FOOTER">
    <g>
      <g>
        <path class="cls-2" d="m0,20.72C0,19.91,0,19.09,0,18.28c.03-.25.06-.5.09-.75.46-4.21,2.07-7.92,4.92-11.07C8.02,3.14,11.75,1.06,16.18.29c.7-.12,1.4-.2,2.1-.29.81,0,1.63,0,2.44,0,.1.02.19.05.29.06,3.04.23,5.88,1.1,8.47,2.69,5.03,3.1,8.13,7.56,9.22,13.38.13.71.2,1.43.3,2.14v2.44c-.06.46-.11.93-.17,1.39-.55,3.9-2.1,7.34-4.71,10.28-3.01,3.39-6.75,5.5-11.22,6.3-.72.13-1.45.2-2.18.3h-2.44c-.48-.06-.95-.11-1.43-.18-3.6-.51-6.83-1.88-9.64-4.19-3.73-3.07-6.05-6.98-6.91-11.73C.17,22.18.1,21.45,0,20.72Zm19.5,11.46c.15-.16.27-.28.38-.42,1.44-1.75,2.92-3.48,4.31-5.27,1.55-2.01,2.95-4.13,4.01-6.45.7-1.52,1.16-3.09.88-4.79-.6-3.79-2.65-6.5-6.25-7.82-3.58-1.32-6.9-.64-9.79,1.87-2.53,2.19-4.39,6.49-2.25,10.76.95,1.89,2.03,3.68,3.25,5.4,1.67,2.34,3.49,4.55,5.45,6.72Z"/>
        <path class="cls-1" d="m19.5,32.18c-1.97-2.17-3.79-4.38-5.45-6.72-1.22-1.72-2.31-3.51-3.25-5.4-2.14-4.27-.27-8.56,2.25-10.76,2.89-2.51,6.22-3.18,9.79-1.87,3.6,1.32,5.64,4.03,6.25,7.82.27,1.7-.19,3.27-.88,4.79-1.06,2.32-2.46,4.44-4.01,6.45-1.39,1.79-2.87,3.52-4.31,5.27-.11.13-.24.26-.38.42Zm-3.66-15.92c-.01,2.02,1.61,3.68,3.61,3.69,2.02.02,3.68-1.6,3.7-3.61.02-2.04-1.6-3.7-3.63-3.71-2.02,0-3.67,1.61-3.68,3.62Z"/>
      </g>
      <path class="cls-2" d="m15.84,16.27c.01-2.01,1.66-3.63,3.68-3.62,2.03,0,3.65,1.67,3.63,3.71-.02,2.01-1.68,3.62-3.7,3.61-2.01-.02-3.63-1.67-3.61-3.69Z"/>
    </g>
  </g>
</svg>