<?xml version="1.0" encoding="UTF-8"?>
<svg id="_圖層_2" data-name="圖層 2" xmlns="http://www.w3.org/2000/svg" xmlns:xlink="http://www.w3.org/1999/xlink" viewBox="0 0 76 76.01">
  <defs>
    <style>
      .cls-1 {
        fill: url(#_未命名漸層_181-2);
        stroke-width: 0px;
      }

      .cls-2 {
        fill: #fff;
        stroke: url(#_未命名漸層_181);
        stroke-miterlimit: 10;
      }
    </style>
    <linearGradient id="_未命名漸層_181" data-name="未命名漸層 181" x1="0" y1="38" x2="76" y2="38" gradientUnits="userSpaceOnUse">
      <stop offset="0" stop-color="#74bcb5"/>
      <stop offset=".28" stop-color="#72b8bb"/>
      <stop offset=".65" stop-color="#6dadcc"/>
      <stop offset="1" stop-color="#67a0e3"/>
    </linearGradient>
    <linearGradient id="_未命名漸層_181-2" data-name="未命名漸層 181" x1="18.05" y1="36.15" x2="57.55" y2="36.15" xlink:href="#_未命名漸層_181"/>
  </defs>
  <g id="_社群" data-name="社群">
    <g>
      <path class="cls-2" d="m.5,40.21c0-1.47,0-2.93,0-4.4.04-.26.1-.52.13-.78.18-1.35.29-2.72.55-4.06,1.58-8.2,5.47-15.13,11.64-20.74C18.18,5.36,24.46,2.29,31.62,1.07c1.39-.24,2.79-.38,4.19-.57,1.47,0,2.93,0,4.4,0,.97.11,1.94.21,2.9.35,8.79,1.28,16.32,5.07,22.33,11.62,7.93,8.65,11.2,18.91,9.72,30.55-1.13,8.83-5.02,16.39-11.6,22.41-9.27,8.48-20.21,11.59-32.56,9.4-8.22-1.46-15.14-5.45-20.75-11.62-4.89-5.36-7.95-11.65-9.17-18.81-.24-1.39-.38-2.79-.57-4.19Z"/>
      <path class="cls-1" d="m47.71,55.75c1.65,0,3.16-.3,4.61-.96,1.81-.82,3.11-2.25,4.47-3.61,1.01-1.01,1.02-1.81,0-2.82-2.15-2.16-4.31-4.32-6.47-6.48-1-1-1.83-.99-2.83.02-1.19,1.19-2.36,2.41-3.55,3.59-1.39,1.38-3.1,1.5-4.7.36-4.2-3-7.85-6.57-10.94-10.71-1.32-1.77-1.21-3.41.34-4.97,1.22-1.23,2.46-2.44,3.67-3.68.88-.9.9-1.73.02-2.62-2.22-2.24-4.44-4.46-6.68-6.68-.86-.85-1.7-.85-2.57-.02-.72.69-1.43,1.4-2.12,2.13-2.24,2.37-3.27,5.16-2.82,8.43.32,2.33,1.29,4.45,2.37,6.49,4.56,8.58,11.2,15.06,19.94,19.32,2.3,1.12,4.7,2.03,7.24,2.21Z"/>
    </g>
  </g>
</svg>