<?xml version="1.0" encoding="utf-8"?>
<!-- Generator: Adobe Illustrator 28.0.0, SVG Export Plug-In . SVG Version: 6.00 Build 0)  -->
<svg version="1.1" id="圖層_1" xmlns="http://www.w3.org/2000/svg" xmlns:xlink="http://www.w3.org/1999/xlink" x="0px" y="0px"
	 viewBox="0 0 16 16" style="enable-background:new 0 0 16 16;" xml:space="preserve">
<style type="text/css">
	.st0{fill-rule:evenodd;clip-rule:evenodd;fill:#1A9B55;}
</style>
<path class="st0" d="M12.09,15.3c2.16,0,3.91-1.75,3.91-3.91c0-2.16-1.75-3.91-3.91-3.91c-1.05,0-2,0.41-2.71,1.09l-3.91,4.3
	c-0.23,0.25-0.66,0.63-1.42,0.63c-1.16,0-2.1-0.94-2.1-2.1c0-1.16,0.94-2.1,2.1-2.1c0.52,0,1.07,0.28,1.43,0.59
	C5.82,10.3,6.55,10.38,6.9,10C7.26,9.61,7.2,8.9,6.74,8.57C6.1,7.94,5.06,7.48,4.06,7.48c-2.16,0-3.91,1.75-3.91,3.91
	c0,2.16,1.75,3.91,3.91,3.91c0.97,0,1.85-0.35,2.53-0.93l4.1-4.55c0.37-0.33,0.86-0.53,1.4-0.53c1.16,0,2.1,0.94,2.1,2.1
	c0,1.16-0.94,2.1-2.1,2.1c-0.58,0-1.1-0.23-1.48-0.61c-0.31-0.5-1.01-0.58-1.43-0.16c-0.36,0.37-0.35,0.97,0.04,1.32
	C9.94,14.82,10.96,15.3,12.09,15.3L12.09,15.3z M6.95,1.61L3.63,6.65C3.75,6.64,3.88,6.63,4,6.63c0.21,0,0.42,0.01,0.63,0.04l0.01,0
	c0.39,0.05,0.77,0.15,1.13,0.29L8.2,3.08l2.27,3.88c0.54-0.21,1.41-0.33,1.75-0.33c0.34,0,0.14,0,0.21,0l-3.09-5.2
	C9.1,1.02,8.73,0.7,8.17,0.7C7.61,0.7,7.26,1.14,6.95,1.61z"/>
</svg>
