<?xml version="1.0" encoding="UTF-8"?>
<svg id="_圖層_2" data-name="圖層 2" xmlns="http://www.w3.org/2000/svg" xmlns:xlink="http://www.w3.org/1999/xlink" viewBox="0 0 76 76.01">
  <defs>
    <style>
      .cls-1 {
        fill: url(#_未命名漸層_181-4);
      }

      .cls-1, .cls-2, .cls-3 {
        stroke-width: 0px;
      }

      .cls-2 {
        fill: url(#_未命名漸層_181-2);
      }

      .cls-3 {
        fill: url(#_未命名漸層_181-3);
      }

      .cls-4 {
        fill: #fff;
        stroke: url(#_未命名漸層_181);
        stroke-miterlimit: 10;
      }
    </style>
    <linearGradient id="_未命名漸層_181" data-name="未命名漸層 181" x1="0" y1="38" x2="76" y2="38" gradientUnits="userSpaceOnUse">
      <stop offset="0" stop-color="#74bcb5"/>
      <stop offset=".28" stop-color="#72b8bb"/>
      <stop offset=".65" stop-color="#6dadcc"/>
      <stop offset="1" stop-color="#67a0e3"/>
    </linearGradient>
    <linearGradient id="_未命名漸層_181-2" data-name="未命名漸層 181" x1="26.78" y1="57.32" x2="37.01" y2="57.32" xlink:href="#_未命名漸層_181"/>
    <linearGradient id="_未命名漸層_181-3" data-name="未命名漸層 181" x1="41.72" y1="57.3" x2="51.94" y2="57.3" xlink:href="#_未命名漸層_181"/>
    <linearGradient id="_未命名漸層_181-4" data-name="未命名漸層 181" x1="15.24" y1="34.62" x2="57.12" y2="34.62" xlink:href="#_未命名漸層_181"/>
  </defs>
  <g id="Top">
    <g>
      <path class="cls-4" d="m.5,40.21c0-1.47,0-2.93,0-4.4.04-.26.1-.52.13-.78.18-1.35.29-2.72.55-4.06,1.58-8.2,5.47-15.13,11.64-20.74C18.18,5.36,24.46,2.29,31.62,1.07c1.39-.24,2.79-.38,4.19-.57,1.47,0,2.93,0,4.4,0,.97.11,1.94.21,2.9.35,8.79,1.28,16.32,5.07,22.33,11.62,7.93,8.65,11.2,18.91,9.72,30.55-1.13,8.83-5.02,16.39-11.6,22.41-9.27,8.48-20.21,11.59-32.56,9.4-8.22-1.46-15.14-5.45-20.75-11.62-4.89-5.36-7.95-11.65-9.17-18.81-.24-1.39-.38-2.79-.57-4.19Z"/>
      <g>
        <path class="cls-2" d="m31.28,62.43c-.91-.21-1.79-.48-2.53-1.09-1.64-1.37-2.3-3.12-1.81-5.2.5-2.12,1.9-3.45,4.03-3.84,2.83-.53,5.48,1.33,5.96,4.06.5,2.88-1.32,5.46-4.24,6-.05,0-.1.05-.15.07h-1.27Z"/>
        <path class="cls-3" d="m46.24,62.43c-.72-.27-1.5-.44-2.14-.82-2.06-1.23-2.9-3.83-2.06-6.09.82-2.19,3.16-3.62,5.38-3.29,2.53.38,4.35,2.29,4.5,4.73.17,2.68-1.63,4.94-4.31,5.4-.07.01-.13.05-.2.07h-1.18Z"/>
        <path class="cls-1" d="m25.65,27.65c.18,0,.36,0,.54,0,9.64,0,19.28,0,28.92,0,.27,0,.54,0,.8.06.94.24,1.39,1.2,1.01,2.18-.63,1.61-1.27,3.22-1.91,4.83-1.04,2.62-2.08,5.23-3.11,7.84-.43,1.09-.84,1.37-2,1.37-6.98,0-13.95,0-20.93,0-.18,0-.36,0-.61,0,.11.68.21,1.32.32,1.95.19,1.08.19,1.08,1.3,1.08,8.4,0,16.8,0,25.2,0,.25,0,.51,0,.75.06.76.17,1.26.88,1.18,1.63-.08.8-.67,1.38-1.46,1.43-.13,0-.25,0-.38,0-9.15,0-18.29,0-27.44,0-.72,0-1.33-.17-1.66-.85-.17-.35-.23-.75-.29-1.14-1.16-6.81-2.31-13.63-3.47-20.44-.28-1.68-.58-3.36-.84-5.04-.05-.32-.17-.38-.46-.38-1.38.01-2.76,0-4.14,0-1.02,0-1.73-.65-1.73-1.56,0-.91.72-1.56,1.74-1.56,1.87,0,3.75,0,5.62,0,1.1,0,1.64.48,1.83,1.58.38,2.23.78,4.46,1.17,6.7.01.07.03.13.06.25Z"/>
      </g>
    </g>
  </g>
</svg>