<?xml version="1.0" encoding="UTF-8"?>
<svg id="_圖層_2" data-name="圖層 2" xmlns="http://www.w3.org/2000/svg" xmlns:xlink="http://www.w3.org/1999/xlink" viewBox="0 0 40 39.92">
  <defs>
    <style>
      .cls-1 {
        fill: url(#_未命名漸層_181);
        stroke-width: 0px;
      }
    </style>
    <linearGradient id="_未命名漸層_181" data-name="未命名漸層 181" x1="0" y1="19.96" x2="40" y2="19.96" gradientUnits="userSpaceOnUse">
      <stop offset="0" stop-color="#74bcb5"/>
      <stop offset=".28" stop-color="#72b8bb"/>
      <stop offset=".65" stop-color="#6dadcc"/>
      <stop offset="1" stop-color="#67a0e3"/>
    </linearGradient>
  </defs>
  <g id="_我要預約" data-name="我要預約">
    <path class="cls-1" d="m18.75,0c.83,0,1.67,0,2.5,0,.1.02.2.06.3.06,3.1.23,6,1.12,8.65,2.74,5.19,3.17,8.37,7.74,9.49,13.72.14.72.21,1.46.31,2.19v2.5c-.1.72-.18,1.44-.3,2.15-1.59,9.22-9.42,16.13-18.78,16.54-4.95.21-9.41-1.2-13.3-4.28-3.98-3.15-6.43-7.25-7.32-12.26C.17,22.65.1,21.93,0,21.21,0,20.38,0,19.55,0,18.71c.06-.47.11-.95.17-1.42.57-4.07,2.22-7.66,4.99-10.7C8.25,3.2,12.06,1.08,16.59.3c.71-.12,1.44-.2,2.16-.3Zm-1.84,30.54c0-.38,0-.7,0-1.03.01-1.58-.05-3.17.05-4.75.11-1.76,1.9-3.02,3.64-2.65,1.52.32,2.49,1.53,2.5,3.18.01,1.59,0,3.17,0,4.76,0,.15,0,.3,0,.5h.47c1.29,0,2.58,0,3.87,0,1.22,0,1.85-.63,1.85-1.85,0-2.55,0-5.09,0-7.64,0-.15,0-.3,0-.48.31,0,.57.01.83,0,.72-.04,1.23-.38,1.49-1.06.25-.65.08-1.32-.49-1.79-3.03-2.54-6.06-5.09-9.1-7.61-1.22-1.01-2.88-.98-4.09.04-3.01,2.51-6.01,5.02-9.01,7.53-.59.49-.78,1.15-.54,1.81.23.66.8,1.05,1.57,1.07.24,0,.49,0,.77,0,0,.2,0,.35,0,.5,0,2.55,0,5.09,0,7.64,0,1.19.64,1.82,1.84,1.82.79,0,1.59,0,2.38,0,.64,0,1.27,0,1.97,0Z"/>
  </g>
</svg>